<svg xmlns="http://www.w3.org/2000/svg" width="90.781" height="113.477" viewBox="0 0 90.781 113.477">
  <path id="Trazado_17" data-name="Trazado 17" d="M83.434,24.7H72.086a22.7,22.7,0,0,0-45.391,0H15.348A11.381,11.381,0,0,0,4,36.043v68.086a11.381,11.381,0,0,0,11.348,11.348H83.434a11.381,11.381,0,0,0,11.348-11.348V36.043A11.381,11.381,0,0,0,83.434,24.7Zm-45.391,22.7a5.674,5.674,0,0,1-11.348,0V36.043H38.043ZM49.391,13.348A11.381,11.381,0,0,1,60.738,24.7h-22.7A11.381,11.381,0,0,1,49.391,13.348Zm22.7,34.043a5.674,5.674,0,0,1-11.348,0V36.043H72.086Z" transform="translate(-4 -2)" fill="#fff"/>
</svg>
