<svg xmlns="http://www.w3.org/2000/svg" width="38.96" height="45.056" viewBox="0 0 38.96 45.056">
  <g id="edad_icon" data-name="edad icon" transform="translate(0 -8.657)" style="mix-blend-mode: darken;isolation: isolate">
    <path id="Trazado_1" data-name="Trazado 1" d="M40.852,190.965c.366,0,.661.146.661.324v.672c0,.178-.3.323-.661.323H4.438c-.367,0-.664-.145-.664-.323v-.672c0-.178.3-.324.664-.324H40.851Zm-19.371-17.15c.082,0,.148.145.148.323v.672c0,.178-.067.323-.149.323h-8.16c-.083,0-.149-.145-.149-.323v-.672c0-.178.067-.323.149-.323h8.161Zm11.153,0c.083,0,.149.145.149.323v.672c0,.178-.067.323-.149.323h-8.16c-.083,0-.149-.145-.149-.323v-.672c0-.178.067-.323.149-.323h8.161Z" transform="translate(-3.411 -149.231)" fill="#ffffff" fill-rule="evenodd"/>
    <path id="Trazado_2" data-name="Trazado 2" d="M2.091,116.064H36.952v19.069H2.09V116.064Zm-.719-1.805A1.366,1.366,0,0,0,0,115.62v20.2a1.366,1.366,0,0,0,1.372,1.362H37.59a1.367,1.367,0,0,0,1.37-1.362v-20.2a1.366,1.366,0,0,0-1.371-1.362Zm7.649-13.223q-1.361.189-1.352,1.362v4.3a1.664,1.664,0,0,1,1.75,1.79v-5.84H29.741v4.449q.5-1.84,1.632-.222V102.4a1.357,1.357,0,0,0-1.352-1.362Z" transform="translate(0 -83.47)" fill="#ffffff" fill-rule="evenodd"/>
    <path id="Trazado_3" data-name="Trazado 3" d="M54.155,29.547c-1.883,0-1.876-.935-1.876-1.2,0-1.208,1.23-3.858,1.853-4,.681.138,1.912,2.788,1.913,4,0,.264-.006,1.2-1.89,1.2m-.046-7.807c-1.18.246-3.5,4.949-3.5,7.1,0,.463-.009,2.121,3.543,2.121s3.567-1.655,3.567-2.121c0-2.146-2.325-6.853-3.608-7.094M65.2,29.547c-1.883,0-1.877-.935-1.877-1.2,0-1.208,1.231-3.858,1.855-4,.681.138,1.911,2.788,1.913,4,0,.264-.006,1.2-1.89,1.2m-.048-7.806c-1.178.245-3.5,4.948-3.5,7.094,0,.463-.009,2.121,3.543,2.121s3.565-1.655,3.565-2.121c0-2.146-2.325-6.853-3.608-7.094m11.172,7.806c-1.883,0-1.876-.935-1.876-1.2,0-1.208,1.231-3.858,1.853-4,.681.138,1.912,2.788,1.914,4,0,.264-.006,1.2-1.891,1.2m-.047-7.806c-1.177.245-3.5,4.948-3.5,7.094,0,.463-.01,2.121,3.541,2.121s3.565-1.655,3.565-2.121c0-2.146-2.324-6.853-3.607-7.094M65.2,16.463c-1.883,0-1.877-.935-1.877-1.2,0-1.209,1.231-3.858,1.855-4,.681.138,1.911,2.789,1.913,4,0,.262-.006,1.194-1.89,1.194m-.048-7.8c-1.178.243-3.5,4.947-3.5,7.093,0,.464-.009,2.121,3.543,2.121s3.565-1.655,3.565-2.121c0-2.146-2.325-6.853-3.608-7.094" transform="translate(-45.727 0)" fill="#ffffff" fill-rule="evenodd"/>
  </g>
</svg>
