<svg xmlns="http://www.w3.org/2000/svg" width="40.084" height="40.331" viewBox="0 0 40.084 40.331">
  <path id="svgexport-20" d="M15.747,14.056,12.483,27.114H25.4l3.265-13.057Zm1.089-4.351h12.92L31.518,2.65A2.177,2.177,0,1,1,35.744,3.7l-1.5,6h3.738a2.176,2.176,0,1,1,0,4.351H33.154L29.89,27.114h8.091a2.176,2.176,0,1,1,0,4.352H28.8L27.035,38.52a2.175,2.175,0,1,1-4.216-1.053l1.5-6H11.4L9.628,38.52a2.175,2.175,0,1,1-4.216-1.053l1.5-6H3.164a2.177,2.177,0,0,1,0-4.351H8L11.26,14.056h-8.1a2.177,2.177,0,0,1,0-4.351h9.183L14.115,2.65A2.173,2.173,0,1,1,18.332,3.7l-1.5,6Z" transform="translate(-0.573 -0.449)" fill="#ffffff" stroke="#ffffff00" stroke-width="1" fill-rule="evenodd"/>
</svg>
