<svg xmlns="http://www.w3.org/2000/svg" width="256.73" height="12.447" viewBox="0 0 256.73 12.447">
  <path id="Trazado_11" data-name="Trazado 11" d="M72.549,101.412H49.624a1.408,1.408,0,0,1-1.049-.7V96.161a.926.926,0,0,1,1.049-1.049H72.549a.683.683,0,0,0,.521.177,1.033,1.033,0,0,1,.526.874v4.552ZM36.675,96.866H12.353V95.114H36.675l1.055.7Zm73.314-.352a.553.553,0,0,1-.523.352H85.322V95.114h24.142c.232,0,.523.238.874.7C110.22,96.049,110.1,96.281,109.989,96.514Zm-68.764-1.75A2.322,2.322,0,0,0,38.6,92.138H8.5v12.427h3.849v-4.9H38.6q2.621,0,2.624-2.8v-2.1Zm35.694,0A2.322,2.322,0,0,0,74.3,92.138H47.525A2.321,2.321,0,0,0,44.9,94.764v6.825q0,2.976,2.625,2.977H74.3c1.746,0,2.624-.993,2.624-2.977V94.764Zm37.269,6.127a3.043,3.043,0,0,0-1.049-2.1,1.951,1.951,0,0,0,1.049-1.922v-2.1q0-2.621-2.8-2.625H81.644v12.427h3.68v-4.9h23.792q.171.169.7.612c.351.294.527.555.527.783v3.5h3.849V100.89h0Zm36.748-1.224a2.476,2.476,0,0,0-2.8-2.8h-25.2c-.232,0-.584-.346-1.049-1.049l.435-.437a.849.849,0,0,1,.614-.266h28V92.138H121.014a2.321,2.321,0,0,0-2.625,2.625v2.1q0,2.8,2.625,2.8h25.194a.928.928,0,0,1,1.05,1.049c-.114.118-.263.266-.437.437a.841.841,0,0,1-.614.261H118.39v3.152h29.747c1.863,0,2.8-.993,2.8-2.977V99.666Zm36.742,1.746H159.861l-.527-.7V96.161a1.508,1.508,0,0,1,.527-1.049h27.818V92.137H158.286c-1.871,0-2.8.878-2.8,2.625v6.825c0,1.984.931,2.977,2.8,2.977h29.393Zm36.046-9.275h-3.5v4.727h-25.2V92.137h-3.672v12.427h3.672v-4.9h25.2v4.9h3.5Zm37.094,9.275H231.951V99.666h28.868v-2.8H231.951V95.114h28.868V92.138H228.1v12.427h32.716Zm2.683-9.294a1.732,1.732,0,1,0,1.732,1.731A1.709,1.709,0,0,0,263.5,92.118Zm0,.247a1.485,1.485,0,1,1-1.461,1.486A1.451,1.451,0,0,1,263.5,92.365Zm-.378,1.6h.413l.562.887h.288l-.6-.887a.542.542,0,0,0,.505-.559c0-.359-.2-.554-.653-.554h-.767v2h.248v-.887Zm0-.21v-.692h.451c.242,0,.473.066.473.345,0,.34-.3.348-.6.348Z" transform="translate(-8.504 -92.118)" fill="#fff" fill-rule="evenodd"/>
</svg>
