<svg xmlns="http://www.w3.org/2000/svg" width="126.822" height="95.116" viewBox="0 0 126.822 95.116">
  <path id="Trazado_14" data-name="Trazado 14" d="M110.969,29.421V24.137L95.116,34.705,79.263,24.137v5.284L95.116,39.99ZM116.253,3H10.568A10.6,10.6,0,0,0,0,13.568V87.548A10.6,10.6,0,0,0,10.568,98.116H116.253a10.554,10.554,0,0,0,10.516-10.568l.053-73.979A10.6,10.6,0,0,0,116.253,3ZM42.274,18.853A15.853,15.853,0,1,1,26.421,34.705,15.831,15.831,0,0,1,42.274,18.853ZM73.979,82.263H10.568V76.979c0-10.568,21.137-16.381,31.705-16.381s31.705,5.813,31.705,16.381Zm42.274-31.705H73.979V18.853h42.274Z" transform="translate(0 -3)" fill="#fff"/>
</svg>
